<?xml version="1.0" standalone="no"?>
<!DOCTYPE svg PUBLIC "-//W3C//DTD SVG 20010904//EN"
 "http://www.w3.org/TR/2001/REC-SVG-20010904/DTD/svg10.dtd">
<svg version="1.0" xmlns="http://www.w3.org/2000/svg"
 width="499.000000pt" height="500.000000pt" viewBox="0 0 499.000000 500.000000"
 preserveAspectRatio="xMidYMid meet">

<g transform="translate(0.000000,500.000000) scale(0.100000,-0.100000)"
fill="#000000" stroke="none">
<path d="M1450 3040 l0 -160 80 0 80 0 0 -80 0 -80 -80 0 -80 0 0 -160 0 -160
405 0 405 0 0 320 0 319 -82 3 -83 3 -3 78 -3 77 -319 0 -320 0 0 -160z"/>
<path d="M2740 3040 l0 -160 80 0 80 0 0 -80 0 -80 -80 0 -80 0 0 -160 0 -160
399 0 c354 0 400 2 405 16 3 9 6 153 6 320 l0 304 -85 0 -85 0 0 80 0 80 -320
0 -320 0 0 -160z"/>
<path d="M1610 2160 l0 -80 -80 0 -80 0 0 -165 0 -165 80 0 80 0 0 -80 0 -80
80 0 80 0 0 -80 0 -80 80 0 80 0 0 -80 0 -80 565 0 565 0 0 80 0 80 80 0 80 0
0 80 0 80 80 0 80 0 0 80 0 80 79 0 c63 0 80 3 85 16 8 20 8 262 0 292 -6 20
-12 22 -85 22 l-79 0 0 80 0 81 -157 -3 -158 -3 -3 -77 -3 -78 -79 0 -80 0 0
-85 0 -85 -402 2 -403 3 -3 83 -3 82 -79 0 -80 0 0 80 0 80 -160 0 -160 0 0
-80z m320 -325 l0 -245 -80 0 -80 0 0 80 0 80 -80 0 -80 0 0 165 0 165 160 0
160 0 0 -245z m1455 80 l0 -160 -82 -3 -83 -3 0 -79 0 -80 -80 0 -80 0 0 245
0 245 163 -2 162 -3 0 -160z m-965 -325 l0 -160 -162 2 -163 3 -3 158 -3 157
166 0 165 0 0 -160z m480 0 l0 -160 -160 0 -160 0 0 160 0 160 160 0 160 0 0
-160z"/>
</g>
</svg>
